<svg width="32" height="32" viewBox="0 0 32 32" fill="none" xmlns="http://www.w3.org/2000/svg">
    <path d="M17.5858 4C17.851 4 18.1054 4.10536 18.2929 4.29289L21.7071 7.70711C21.8946 7.89464 22 8.149 22 8.41421L22 18C22 18.5523 21.5523 19 21 19C20.4477 19 20 18.5523 20 18L20 9L17 6H7V26H10C10.5523 26 11 26.4477 11 27C11 27.5523 10.5523 28 10 28H7C5.89543 28 5 27.1046 5 26V6C5 4.89543 5.89543 4 7 4H17.5858Z" fill="#333333"/>
    <path d="M14 17C14.5523 17 15 17.4477 15 18C15 18.5523 14.5523 19 14 19H10C9.44772 19 9 18.5523 9 18C9 17.4477 9.44772 17 10 17H14Z" fill="#333333"/>
    <path d="M18 14C18 13.4477 17.5523 13 17 13H10C9.44772 13 9 13.4477 9 14C9 14.5523 9.44772 15 10 15H17C17.5523 15 18 14.5523 18 14Z" fill="#333333"/>
    <path d="M17 9C17.5523 9 18 9.44772 18 10C18 10.5523 17.5523 11 17 11H10C9.44772 11 9 10.5523 9 10C9 9.44772 9.44772 9 10 9H17Z" fill="#333333"/>
    <path d="M21.2075 21.7935C22.268 21.7935 23.0988 22.0528 23.535 22.7275C23.845 23.207 23.3632 23.732 22.7922 23.732C22.531 23.732 22.2996 23.5864 22.0667 23.4398C21.8884 23.3275 21.7091 23.2147 21.515 23.1663C21.4325 23.1458 21.3381 23.1356 21.2304 23.1356C20.7831 23.1356 20.5537 23.3306 20.5537 23.6059C20.5537 23.8926 20.829 24.1878 21.5631 24.2795C23.2263 24.486 24.0293 24.7415 24.0293 26.0262C24.0293 27.4486 22.974 28.0909 21.3107 28.0909C20.0911 28.0909 19.2336 27.7288 18.8258 27.0378C18.5382 26.5506 19.0287 26.0491 19.5945 26.0491C19.8757 26.0491 20.1191 26.213 20.3645 26.3781C20.5486 26.5021 20.7338 26.6268 20.9369 26.6836C21.0371 26.7116 21.1566 26.7259 21.2992 26.7259C21.804 26.7259 22.0334 26.5309 22.0334 26.2327C22.0334 25.9459 21.7466 25.6833 20.9207 25.5686C19.3148 25.3621 18.638 25.0168 18.638 23.7665C18.638 22.4359 19.8195 21.7935 21.2075 21.7935Z" fill="#333333"/>
    <path d="M25.8132 27.1377L24.5063 23.2747C24.4084 22.9811 24.3106 22.6702 24.3969 22.4112C24.5063 22.0773 24.8632 21.8182 25.2835 21.8182C25.8822 21.8182 26.0377 22.2845 26.1816 22.7163L26.9013 24.9328L27.6209 22.7163C27.7648 22.2845 27.9203 21.8182 28.519 21.8182C28.9393 21.8182 29.2962 22.0773 29.4056 22.4112C29.4919 22.6702 29.3941 22.9811 29.2962 23.2747L27.9893 27.1377C27.8512 27.5522 27.7418 27.7249 27.5863 27.8631C27.4021 28.0301 27.1891 28.1049 26.9013 28.1049C26.6134 28.1049 26.4004 28.0301 26.2162 27.8631C26.0607 27.7249 25.9513 27.5522 25.8132 27.1377Z" fill="#333333"/>
    <path d="M16.9161 27.897C16.5964 28.0339 16.2767 28.0909 15.8542 28.0909C14.7923 28.0909 13.0909 27.6347 13.0909 24.9545C13.0909 22.2744 14.7923 21.8182 15.8542 21.8182C16.2767 21.8182 16.5964 21.8752 16.9161 22.0121C17.3043 22.1774 17.8182 22.5481 17.8182 23.0271C17.8182 23.2666 17.7268 23.4605 17.5556 23.643C17.43 23.7798 17.2016 23.8939 16.9846 23.8939C16.7791 23.8939 16.6307 23.8255 16.4023 23.6772C16.2367 23.5688 16.0711 23.5061 15.8542 23.5061C15.603 23.5061 15.4317 23.586 15.2718 23.7456C15.0549 23.9737 14.9635 24.3729 14.9635 24.9545C14.9635 25.5362 15.0549 25.9354 15.2718 26.1635C15.4317 26.3231 15.603 26.403 15.8542 26.403C16.0711 26.403 16.2367 26.3403 16.4023 26.2319C16.6307 26.0836 16.7791 26.0152 16.9846 26.0152C17.2016 26.0152 17.43 26.1293 17.5556 26.2661C17.7268 26.4486 17.8182 26.6425 17.8182 26.882C17.8182 27.361 17.3043 27.7317 16.9161 27.897Z" fill="#333333"/>
</svg>
