<svg width="32" height="32" viewBox="0 0 32 32" fill="none" xmlns="http://www.w3.org/2000/svg">
    <path d="M17.5858 4C17.851 4 18.1054 4.10536 18.2929 4.29289L21.7071 7.70711C21.8946 7.89464 22 8.149 22 8.41421L22 18C22 18.5523 21.5523 19 21 19C20.4477 19 20 18.5523 20 18V9L17 6H7V27C7 27.5523 6.55228 28 6 28C5.44772 28 5 27.5523 5 27V6C5 4.89543 5.89543 4 7 4H17.5858Z" fill="#333333"/>
    <path d="M14 17C14.5523 17 15 17.4477 15 18C15 18.5523 14.5523 19 14 19H10C9.44772 19 9 18.5523 9 18C9 17.4477 9.44772 17 10 17H14Z" fill="#333333"/>
    <path d="M18 14C18 13.4477 17.5523 13 17 13H10C9.44772 13 9 13.4477 9 14C9 14.5523 9.44772 15 10 15H17C17.5523 15 18 14.5523 18 14Z" fill="#333333"/>
    <path d="M17 9C17.5523 9 18 9.44771 18 10C18 10.5523 17.5523 11 17 11H10C9.44772 11 9 10.5523 9 10C9 9.44771 9.44772 9 10 9H17Z" fill="#333333"/>
    <path d="M30 27.1C30 27.3833 29.9731 27.6083 29.7939 27.775C29.6326 27.925 29.4444 28 29.2025 28C28.8441 28 28.6246 27.7917 28.2751 27.3083L26.5771 24.9833V27.0167C26.5771 27.35 26.5726 27.4667 26.4785 27.6417C26.3665 27.85 26.1022 28 25.7885 28C25.4749 28 25.2106 27.85 25.0986 27.6417C25.0045 27.4667 25 27.35 25 27.0167V22.9C25 22.6167 25.0269 22.3917 25.2061 22.225C25.3674 22.075 25.5556 22 25.7975 22C26.1559 22 26.3754 22.2083 26.7249 22.6917L28.4229 25.0167V22.9833C28.4229 22.65 28.4274 22.5333 28.5215 22.3583C28.6335 22.15 28.8979 22 29.2115 22C29.5251 22 29.7894 22.15 29.9014 22.3583C29.9955 22.5333 30 22.65 30 22.9833V27.1Z" fill="#333333"/>
    <path fill-rule="evenodd" clip-rule="evenodd" d="M21.9339 28.0972C22.673 28.0972 23.1869 27.863 23.6201 27.4207C24.236 26.7918 24.2445 25.9982 24.2445 24.9573C24.2445 23.9164 24.236 23.1228 23.6201 22.4939C23.1869 22.0516 22.673 21.8174 21.9339 21.8174C21.1949 21.8174 20.681 22.0516 20.2477 22.4939C19.6319 23.1228 19.6234 23.9164 19.6234 24.9573C19.6234 25.9982 19.6319 26.7918 20.2477 27.4207C20.681 27.863 21.1949 28.0972 21.9339 28.0972ZM22.7494 24.9573C22.7494 26.0849 22.6645 26.2844 22.5286 26.4666C22.4181 26.614 22.2058 26.7441 21.9339 26.7441C21.6621 26.7441 21.4497 26.614 21.3393 26.4666C21.2034 26.2844 21.1184 26.0849 21.1184 24.9573C21.1184 23.8297 21.2034 23.6215 21.3393 23.4394C21.4497 23.2919 21.6621 23.1705 21.9339 23.1705C22.2058 23.1705 22.4181 23.2919 22.5286 23.4394C22.6645 23.6215 22.7494 23.8297 22.7494 24.9573Z" fill="#333333"/>
    <path d="M11 25.8943V22.8585C11 22.8031 10.999 22.7477 11 22.6923C11 22.1825 11.4232 21.7693 11.933 21.7693C12.4428 21.7693 12.8561 22.1826 12.8561 22.6924C12.8561 22.6946 12.8561 22.6967 12.856 22.6989C12.8567 22.7465 12.8568 22.7992 12.8568 22.8585V25.929C12.8568 27.3949 11.71 28.0975 10.5717 28.0975C10.113 28.0975 9.77859 28.0242 9.46429 27.7857C9.22219 27.6036 9.06818 27.4286 9.06818 26.9551C9.06818 26.7729 9.15737 26.5778 9.28054 26.4693C9.39947 26.3653 9.53539 26.3219 9.6713 26.3219C9.82148 26.3219 9.91747 26.3588 10.0556 26.4118L10.0558 26.4119L10.0571 26.4124C10.0825 26.4222 10.1096 26.4326 10.1385 26.4433C10.1636 26.453 10.1897 26.4641 10.2168 26.4756L10.2169 26.4756C10.3228 26.5205 10.443 26.5714 10.5714 26.5714C10.7857 26.5714 11 26.4841 11 25.8943Z" fill="#333333"/>
    <path d="M18.5426 22.727C18.1063 22.0522 17.2756 21.793 16.2151 21.793C14.8271 21.793 13.6456 22.4353 13.6456 23.7659C13.6456 25.0162 14.3224 25.3616 15.9283 25.5681C16.7542 25.6828 17.041 25.9454 17.041 26.2321C17.041 26.5304 16.8115 26.7254 16.3068 26.7254C16.1641 26.7254 16.0446 26.711 15.9445 26.683C15.7414 26.6262 15.5561 26.5015 15.372 26.3776C15.1266 26.2124 14.8832 26.0486 14.6021 26.0486C14.0363 26.0486 13.5458 26.5501 13.8334 27.0373C14.2412 27.7282 15.0987 28.0904 16.3183 28.0904C17.9816 28.0904 19.0369 27.448 19.0369 26.0257C19.0369 24.7409 18.2339 24.4855 16.5707 24.279C15.8365 24.1872 15.5612 23.8921 15.5612 23.6053C15.5612 23.33 15.7906 23.135 16.238 23.135C16.3456 23.135 16.44 23.1453 16.5226 23.1658C16.7167 23.2142 16.8959 23.327 17.0743 23.4392C17.3072 23.5858 17.5386 23.7315 17.7998 23.7315C18.3708 23.7315 18.8526 23.2065 18.5426 22.727Z" fill="#333333"/>
</svg>
