<svg
    width="16"
    height="16"
    viewBox="0 0 16 16"
    fill="none"
    xmlns="http://www.w3.org/2000/svg"
>
    <path fill="currentColor" d="M11.6714 9.53807L11.6654 9.58807C10.1994 8.85741 10.0461 8.76007 9.85676 9.04407C9.72543 9.24074 9.34276 9.68674 9.22743 9.81874C9.11076 9.94874 8.99476 9.95874 8.79676 9.86874C8.59676 9.76874 7.95476 9.55874 7.19476 8.87874C6.60276 8.34874 6.20543 7.69874 6.08809 7.49874C5.89276 7.16141 6.30143 7.11341 6.67343 6.40941C6.74009 6.26941 6.70609 6.15941 6.65676 6.06007C6.60676 5.96007 6.20876 4.98007 6.04209 4.58941C5.88209 4.20007 5.71743 4.24941 5.59409 4.24941C5.21009 4.21607 4.92943 4.22141 4.68209 4.47874C3.60609 5.66141 3.87743 6.88141 4.79809 8.17874C6.60743 10.5467 7.57143 10.9827 9.33409 11.5881C9.81009 11.7394 10.2441 11.7181 10.5874 11.6687C10.9701 11.6081 11.7654 11.1881 11.9314 10.7181C12.1014 10.2481 12.1014 9.85807 12.0514 9.76807C12.0021 9.67807 11.8714 9.62807 11.6714 9.53807Z"/>
    <path fill="currentColor" d="M13.68 2.29877C8.554 -2.65657 0.0706667 0.937433 0.0673333 7.9281C0.0673333 9.32543 0.433333 10.6881 1.13067 11.8914L0 15.9994L4.22333 14.8981C9.49333 17.7448 15.9973 13.9648 16 7.9321C16 5.81477 15.1733 3.8221 13.67 2.32477L13.68 2.29877ZM14.668 7.9101C14.664 12.9988 9.078 16.1768 4.66 13.5794L4.42 13.4368L1.92 14.0868L2.59 11.6568L2.43067 11.4068C-0.318667 7.0301 2.84 1.3101 8.048 1.3101C9.81733 1.3101 11.478 2.0001 12.7287 3.2501C13.9787 4.48943 14.668 6.1501 14.668 7.9101Z"/>
</svg>
