<svg width="32" height="32" viewBox="0 0 32 32" fill="none" xmlns="http://www.w3.org/2000/svg">
    <path fill-rule="evenodd" clip-rule="evenodd" d="M17.5858 4C17.851 4 18.1054 4.10536 18.2929 4.29289L21.7071 7.70711C21.8946 7.89464 22 8.149 22 8.41421V15C22 15.5523 21.5523 16 21 16C20.4477 16 20 15.5523 20 15V9L17 6H7V26H10C10.5523 26 11 26.4477 11 27C11 27.5523 10.5523 28 10 28H7C5.89543 28 5 27.1046 5 26V6C5 4.89543 5.89543 4 7 4H17.5858ZM14 17C14.5523 17 15 17.4477 15 18C15 18.5523 14.5523 19 14 19H10C9.44772 19 9 18.5523 9 18C9 17.4477 9.44772 17 10 17H14ZM17 13C17.5523 13 18 13.4477 18 14C18 14.5523 17.5523 15 17 15H10C9.44772 15 9 14.5523 9 14C9 13.4477 9.44772 13 10 13H17ZM17 9C17.5523 9 18 9.44772 18 10C18 10.5523 17.5523 11 17 11H10C9.44772 11 9 10.5523 9 10C9 9.44772 9.44772 9 10 9H17Z" fill="currentColor"/>
    <path d="M28.0804 22.7762C27.6442 22.1014 26.8135 21.8422 25.7529 21.8422C24.365 21.8422 23.1835 22.4845 23.1835 23.8151C23.1835 25.0654 23.8603 25.4108 25.4662 25.6173C26.2921 25.732 26.5788 25.9946 26.5788 26.2813C26.5788 26.5796 26.3494 26.7746 25.8447 26.7746C25.702 26.7746 25.5825 26.7602 25.4824 26.7322C25.0085 26.5997 24.632 26.0978 24.14 26.0978C23.5742 26.0978 23.0837 26.5993 23.3713 27.0865C23.7791 27.7775 24.6366 28.1396 25.8562 28.1396C27.5194 28.1396 28.5747 27.4972 28.5747 26.0749C28.5747 24.7901 27.7718 24.5347 26.1085 24.3282C25.3744 24.2365 25.0991 23.9413 25.0991 23.6545C25.0991 23.3792 25.3285 23.1842 25.7759 23.1842C25.8835 23.1842 25.9779 23.1945 26.0605 23.215C26.5081 23.3265 26.8764 23.7807 27.3377 23.7807C27.9086 23.7807 28.3904 23.2557 28.0804 22.7762Z" fill="currentColor"/>
    <path d="M16.4698 23.5857L15.8271 22.4908C15.6496 22.1885 15.3253 22.0028 14.9748 22.0028C14.1956 22.0028 13.7229 22.8624 14.1402 23.5204L15.0474 24.9507L13.9328 26.6546C13.554 27.2337 13.9695 28.0019 14.6614 28.0019C14.9652 28.0019 15.2471 27.8436 15.4051 27.5841L16.2403 26.2125L17.0214 27.5226C17.1986 27.8198 17.5191 28.0019 17.8652 28.0019C18.6436 28.0019 19.1128 27.1399 18.6903 26.4862L17.5939 24.7901L18.5795 23.3386C18.9651 22.7707 18.5583 22.0028 17.8719 22.0028C17.5652 22.0028 17.2819 22.167 17.1296 22.4332L16.4698 23.5857Z" fill="currentColor"/>
    <path d="M22 27.0019V19.9962C22 19.4439 21.5515 18.9962 20.9992 18.9962C20.4469 18.9962 19.9985 19.4439 19.9985 19.9962V27.0019C19.9985 27.5542 20.4469 28.0019 20.9992 28.0019C21.5515 28.0019 22 27.5542 22 27.0019Z" fill="currentColor"/>
</svg>
